#Comment line ignore any data following # character 
#Hierarchical Translation and Rotation (.htr) file 
[Header]	
#Header keywords are followed by a single value 
FileType HTR		#Single word string
DataType HTRS		#Translation followed by rotation and scale data
FileVersion 1		#integer
NumSegments 84		#integer
NumFrames 2		#integer
DataFrameRate 30		#integer, data frame rate in this file
EulerRotationOrder ZYX
CalibrationUnits mm
RotationUnits Degrees
GlobalAxisofGravity Y
BoneLengthAxis Y
ScaleFactor 1.00
[SegmentNames&Hierarchy]
#CHILD	PARENT
MASTER GLOBAL
root MASTER
chest root
L_mid_tent01 root
R_mid_tent01 root
spine01 root
Bip01_Neck chest
L_humerus chest
R_humerus chest
weapon_bone chest
Bip01_Head Bip01_Neck
eye_left_bone Bip01_Head
eye_right_bone Bip01_Head
L_forearm L_humerus
L_front_hand L_forearm
L_weapon_bone L_forearm
L_front_hand01_01 L_front_hand
L_front_hand02_01 L_front_hand
L_front_hand03_01 L_front_hand
L_front_hand01_02 L_front_hand01_01
L_front_hand02_02 L_front_hand02_01
L_front_hand03_02 L_front_hand03_01
R_forearm R_humerus
R_front_hand R_forearm
R_weapon_bone R_forearm
R_front_hand01_01 R_front_hand
R_front_hand02_01 R_front_hand
R_front_hand03_01 R_front_hand
R_front_hand01_02 R_front_hand01_01
R_front_hand02_02 R_front_hand02_01
R_front_hand03_02 R_front_hand03_01
null_rope01_connect L_mid_tent01
Rope1_Seg01 null_rope01_connect
Rope1_Seg02 Rope1_Seg01
Rope1_Seg03 Rope1_Seg02
Rope1_Seg04 Rope1_Seg03
Rope1_Seg05 Rope1_Seg04
Rope1_Seg06 Rope1_Seg05
Rope1_Seg07 Rope1_Seg06
Rope1_Seg09 Rope1_Seg07
L_mid_hand01 Rope1_Seg09
L_mid_hand02 Rope1_Seg09
L_mid_hand03 Rope1_Seg09
null_rope02_connect R_mid_tent01
Rope2_Seg01 null_rope02_connect
Rope2_Seg02 Rope2_Seg01
Rope2_Seg03 Rope2_Seg02
Rope2_Seg04 Rope2_Seg03
Rope2_Seg05 Rope2_Seg04
Rope2_Seg06 Rope2_Seg05
Rope2_Seg07 Rope2_Seg06
Rope2_Seg09 Rope2_Seg07
R_mid_hand01 Rope2_Seg09
R_mid_hand02 Rope2_Seg09
R_mid_hand03 Rope2_Seg09
spine02 spine01
spine03 spine02
pelvis spine03
null_rope03_connect pelvis
null_rope04_connect pelvis
Rope3_Seg01 null_rope03_connect
Rope3_Seg02 Rope3_Seg01
Rope3_Seg03 Rope3_Seg02
Rope3_Seg04 Rope3_Seg03
Rope3_Seg05 Rope3_Seg04
Rope3_Seg06 Rope3_Seg05
Rope3_Seg07 Rope3_Seg06
Rope3_Seg08 Rope3_Seg07
Rope3_Seg09 Rope3_Seg08
R_rear_hand01 Rope3_Seg09
R_rear_hand02 Rope3_Seg09
R_rear_hand03 Rope3_Seg09
Rope4_Seg01 null_rope04_connect
Rope4_Seg02 Rope4_Seg01
Rope4_Seg03 Rope4_Seg02
Rope4_Seg04 Rope4_Seg03
Rope4_Seg05 Rope4_Seg04
Rope4_Seg06 Rope4_Seg05
Rope4_Seg07 Rope4_Seg06
Rope4_Seg08 Rope4_Seg07
Rope4_Seg09 Rope4_Seg08
L_rear_hand01 Rope4_Seg09
L_rear_hand02 Rope4_Seg09
L_rear_hand03 Rope4_Seg09
[BasePosition]
#SegmentName Tx, Ty, Tz, Rx, Ry, Rz, BoneLength
MASTER 0.000000 0.000000 0.000000 -90.000000 0.000000 0.000000 10.000000 
root 0.000000 0.000000 0.000000 0.000000 0.000000 0.000000 10.000000 
chest 0.000000 0.000000 0.000000 0.000000 0.000000 0.000000 10.000000 
L_mid_tent01 0.000000 0.000000 0.000000 0.000000 0.000000 0.000000 10.000000 
R_mid_tent01 0.000000 0.000000 0.000000 0.000000 0.000000 0.000000 10.000000 
spine01 0.000000 0.000000 0.000000 0.000000 0.000000 0.000000 10.000000 
Bip01_Neck 0.000000 0.000000 0.000000 0.000000 0.000000 0.000000 10.000000 
L_humerus 0.000000 0.000000 0.000000 0.000000 0.000000 0.000000 10.000000 
R_humerus 0.000000 0.000000 0.000000 0.000000 0.000000 0.000000 10.000000 
weapon_bone 0.000000 0.000000 0.000000 0.000000 0.000000 0.000000 10.000000 
Bip01_Head 0.000000 0.000000 0.000000 0.000000 0.000000 0.000000 10.000000 
eye_left_bone 0.000000 0.000000 0.000000 0.000000 0.000000 0.000000 10.000000 
eye_right_bone 0.000000 0.000000 0.000000 0.000000 0.000000 0.000000 10.000000 
L_forearm 0.000000 0.000000 0.000000 0.000000 0.000000 0.000000 10.000000 
L_front_hand 0.000000 0.000000 0.000000 0.000000 0.000000 0.000000 10.000000 
L_weapon_bone 0.000000 0.000000 0.000000 0.000000 0.000000 0.000000 10.000000 
L_front_hand01_01 0.000000 0.000000 0.000000 0.000000 0.000000 0.000000 10.000000 
L_front_hand02_01 0.000000 0.000000 0.000000 0.000000 0.000000 0.000000 10.000000 
L_front_hand03_01 0.000000 0.000000 0.000000 0.000000 0.000000 0.000000 10.000000 
L_front_hand01_02 0.000000 0.000000 0.000000 0.000000 0.000000 0.000000 10.000000 
L_front_hand02_02 0.000000 0.000000 0.000000 0.000000 0.000000 0.000000 10.000000 
L_front_hand03_02 0.000000 0.000000 0.000000 0.000000 0.000000 0.000000 10.000000 
R_forearm 0.000000 0.000000 0.000000 0.000000 0.000000 0.000000 10.000000 
R_front_hand 0.000000 0.000000 0.000000 0.000000 0.000000 0.000000 10.000000 
R_weapon_bone 0.000000 0.000000 0.000000 0.000000 0.000000 0.000000 10.000000 
R_front_hand01_01 0.000000 0.000000 0.000000 0.000000 0.000000 0.000000 10.000000 
R_front_hand02_01 0.000000 0.000000 0.000000 0.000000 0.000000 0.000000 10.000000 
R_front_hand03_01 0.000000 0.000000 0.000000 0.000000 0.000000 0.000000 10.000000 
R_front_hand01_02 0.000000 0.000000 0.000000 0.000000 0.000000 0.000000 10.000000 
R_front_hand02_02 0.000000 0.000000 0.000000 0.000000 0.000000 0.000000 10.000000 
R_front_hand03_02 0.000000 0.000000 0.000000 0.000000 0.000000 0.000000 10.000000 
null_rope01_connect 0.000000 0.000000 0.000000 0.000000 0.000000 0.000000 10.000000 
Rope1_Seg01 0.000000 0.000000 0.000000 0.000000 0.000000 0.000000 10.000000 
Rope1_Seg02 0.000000 0.000000 0.000000 0.000000 0.000000 0.000000 10.000000 
Rope1_Seg03 0.000000 0.000000 0.000000 0.000000 0.000000 0.000000 10.000000 
Rope1_Seg04 0.000000 0.000000 0.000000 0.000000 0.000000 0.000000 10.000000 
Rope1_Seg05 0.000000 0.000000 0.000000 0.000000 0.000000 0.000000 10.000000 
Rope1_Seg06 0.000000 0.000000 0.000000 0.000000 0.000000 0.000000 10.000000 
Rope1_Seg07 0.000000 0.000000 0.000000 0.000000 0.000000 0.000000 10.000000 
Rope1_Seg09 0.000000 0.000000 0.000000 0.000000 0.000000 0.000000 10.000000 
L_mid_hand01 0.000000 0.000000 0.000000 0.000000 0.000000 0.000000 10.000000 
L_mid_hand02 0.000000 0.000000 0.000000 0.000000 0.000000 0.000000 10.000000 
L_mid_hand03 0.000000 0.000000 0.000000 0.000000 0.000000 0.000000 10.000000 
null_rope02_connect 0.000000 0.000000 0.000000 0.000000 0.000000 0.000000 10.000000 
Rope2_Seg01 0.000000 0.000000 0.000000 0.000000 0.000000 0.000000 10.000000 
Rope2_Seg02 0.000000 0.000000 0.000000 0.000000 0.000000 0.000000 10.000000 
Rope2_Seg03 0.000000 0.000000 0.000000 0.000000 0.000000 0.000000 10.000000 
Rope2_Seg04 0.000000 0.000000 0.000000 0.000000 0.000000 0.000000 10.000000 
Rope2_Seg05 0.000000 0.000000 0.000000 0.000000 0.000000 0.000000 10.000000 
Rope2_Seg06 0.000000 0.000000 0.000000 0.000000 0.000000 0.000000 10.000000 
Rope2_Seg07 0.000000 0.000000 0.000000 0.000000 0.000000 0.000000 10.000000 
Rope2_Seg09 0.000000 0.000000 0.000000 0.000000 0.000000 0.000000 10.000000 
R_mid_hand01 0.000000 0.000000 0.000000 0.000000 0.000000 0.000000 10.000000 
R_mid_hand02 0.000000 0.000000 0.000000 0.000000 0.000000 0.000000 10.000000 
R_mid_hand03 0.000000 0.000000 0.000000 0.000000 0.000000 0.000000 10.000000 
spine02 0.000000 0.000000 0.000000 0.000000 0.000000 0.000000 10.000000 
spine03 0.000000 0.000000 0.000000 0.000000 0.000000 0.000000 10.000000 
pelvis 0.000000 0.000000 0.000000 0.000000 0.000000 0.000000 10.000000 
null_rope03_connect 0.000000 0.000000 0.000000 0.000000 0.000000 0.000000 10.000000 
null_rope04_connect 0.000000 0.000000 0.000000 0.000000 0.000000 0.000000 10.000000 
Rope3_Seg01 0.000000 0.000000 0.000000 0.000000 0.000000 0.000000 10.000000 
Rope3_Seg02 0.000000 0.000000 0.000000 0.000000 0.000000 0.000000 10.000000 
Rope3_Seg03 0.000000 0.000000 0.000000 0.000000 0.000000 0.000000 10.000000 
Rope3_Seg04 0.000000 0.000000 0.000000 0.000000 0.000000 0.000000 10.000000 
Rope3_Seg05 0.000000 0.000000 0.000000 0.000000 0.000000 0.000000 10.000000 
Rope3_Seg06 0.000000 0.000000 0.000000 0.000000 0.000000 0.000000 10.000000 
Rope3_Seg07 0.000000 0.000000 0.000000 0.000000 0.000000 0.000000 10.000000 
Rope3_Seg08 0.000000 0.000000 0.000000 0.000000 0.000000 0.000000 10.000000 
Rope3_Seg09 0.000000 0.000000 0.000000 0.000000 0.000000 0.000000 10.000000 
R_rear_hand01 0.000000 0.000000 0.000000 0.000000 0.000000 0.000000 10.000000 
R_rear_hand02 0.000000 0.000000 0.000000 0.000000 0.000000 0.000000 10.000000 
R_rear_hand03 0.000000 0.000000 0.000000 0.000000 0.000000 0.000000 10.000000 
Rope4_Seg01 0.000000 0.000000 0.000000 0.000000 0.000000 0.000000 10.000000 
Rope4_Seg02 0.000000 0.000000 0.000000 0.000000 0.000000 0.000000 10.000000 
Rope4_Seg03 0.000000 0.000000 0.000000 0.000000 0.000000 0.000000 10.000000 
Rope4_Seg04 0.000000 0.000000 0.000000 0.000000 0.000000 0.000000 10.000000 
Rope4_Seg05 0.000000 0.000000 0.000000 0.000000 0.000000 0.000000 10.000000 
Rope4_Seg06 0.000000 0.000000 0.000000 0.000000 0.000000 0.000000 10.000000 
Rope4_Seg07 0.000000 0.000000 0.000000 0.000000 0.000000 0.000000 10.000000 
Rope4_Seg08 0.000000 0.000000 0.000000 0.000000 0.000000 0.000000 10.000000 
Rope4_Seg09 0.000000 0.000000 0.000000 0.000000 0.000000 0.000000 10.000000 
L_rear_hand01 0.000000 0.000000 0.000000 0.000000 0.000000 0.000000 10.000000 
L_rear_hand02 0.000000 0.000000 0.000000 0.000000 0.000000 0.000000 10.000000 
L_rear_hand03 0.000000 0.000000 0.000000 0.000000 0.000000 0.000000 10.000000 
#Beginning of Data. Separated by tabs
#Fr	Tx	Ty	Tz	Rx	Ry	Rz	SF
[MASTER]
3 0.000000 0.000000 0.000000 0.001660 0.001660 0.001660 0.000000
4 0.000000 0.000000 0.000000 0.001660 0.001660 0.001660 0.000000
[root]
3 -30.591574 -55.294086 5110.062012 -80.778839 -12.731077 -86.322807 5110.453125
4 -32.686909 -54.174564 4998.686035 -91.262566 -13.665596 -89.858360 4999.086426
[chest]
3 -84.512650 -34.090519 0.000000 -1.335338 -1.731940 145.495758 91.129311
4 -84.512650 -34.090519 0.000000 -2.952706 -3.557185 149.305054 91.129311
[L_mid_tent01]
3 27.299259 22.178682 -249.918381 -156.680099 59.991177 -63.888920 252.381348
4 27.299252 22.178696 -249.918396 -140.194351 72.536789 -50.093632 252.381363
[R_mid_tent01]
3 23.228794 24.509907 226.238495 -168.954208 -71.281395 57.994835 228.744751
4 23.228794 24.509907 226.238495 -179.226700 -69.002777 68.425652 228.744751
[spine01]
3 -0.361383 -0.195265 0.000000 0.002062 0.001122 32.879829 0.410763
4 -0.361383 -0.195265 0.000000 0.002062 0.001122 32.879829 0.410763
[Bip01_Neck]
3 165.484543 71.581718 0.000119 176.643677 -1.657967 43.431911 180.302734
4 165.484543 71.581718 0.000119 176.643677 -1.657967 43.431911 180.302734
[L_humerus]
3 -13.983130 -135.272980 -120.471481 156.317337 70.210075 -112.010300 181.680161
4 -13.983130 -135.272980 -120.471481 138.842667 73.778053 -124.645340 181.680161
[R_humerus]
3 -13.983309 -135.273102 125.287651 -172.382233 -66.903793 -92.554047 184.909012
4 -13.983309 -135.273102 125.287651 -169.263184 -55.505142 -97.504967 184.909012
[weapon_bone]
3 235.964890 -300.705902 0.000000 0.000000 -89.951546 -128.212341 382.234833
4 235.964890 -300.705902 0.000000 0.000000 -89.951546 -128.212341 382.234833
[Bip01_Head]
3 213.329590 186.022125 7.818717 32.481468 6.005166 -43.838352 283.151672
4 213.328949 186.027206 7.753849 32.797737 6.069395 -43.835907 283.152771
[eye_left_bone]
3 -24.626970 125.451866 -64.772606 0.000000 -90.000000 -99.840431 143.318359
4 -24.626970 125.451866 -64.772606 0.000000 -90.000000 -99.840431 143.318359
[eye_right_bone]
3 -24.626970 125.451866 64.327362 0.000000 -89.965736 80.156380 143.117676
4 -24.626970 125.451866 64.327362 0.000000 -89.965736 80.156380 143.117676
[L_forearm]
3 322.776093 0.000000 -0.000119 0.000219 -0.002337 -100.716919 322.776093
4 322.776093 0.000000 -0.000119 0.000209 -0.002338 -100.232422 322.776093
[L_front_hand]
3 241.149185 -0.042021 -3.300071 -178.490341 -1.693678 -33.199406 241.171753
4 241.149185 -0.042021 -3.300071 -178.502625 -1.704447 -32.784340 241.171753
[L_weapon_bone]
3 156.183838 0.000000 0.000000 0.000014 0.000007 0.000001 156.183838
4 156.183838 0.000000 0.000000 0.000014 0.000007 0.000001 156.183838
[L_front_hand01_01]
3 86.095154 20.947098 -0.655860 -0.328128 -0.503051 70.952293 88.609184
4 86.095154 20.947098 -0.655860 -0.335131 -0.500211 71.723778 88.609184
[L_front_hand02_01]
3 86.935165 -11.437475 24.513514 147.990921 -57.746967 -53.876896 91.046425
4 86.935165 -11.437475 24.513514 149.028961 -58.148323 -55.100948 91.046425
[L_front_hand03_01]
3 86.637497 -14.123976 -20.424902 -147.937454 55.962566 -55.583706 90.126129
4 86.637497 -14.123976 -20.424902 -148.918808 56.366669 -56.764694 90.126129
[L_front_hand01_02]
3 71.020905 -0.000179 0.000030 0.000320 -0.002325 -105.679993 71.020905
4 71.020905 -0.000179 0.000030 0.000321 -0.002325 -105.732719 71.020905
[L_front_hand02_02]
3 71.020927 -0.000119 0.000060 0.000320 -0.002325 -105.679993 71.020927
4 71.020927 -0.000119 0.000060 0.000321 -0.002325 -105.732719 71.020927
[L_front_hand03_02]
3 71.020905 -0.000060 0.000060 0.000320 -0.002325 -105.679993 71.020905
4 71.020905 -0.000060 0.000060 0.000321 -0.002325 -105.732719 71.020905
[R_forearm]
3 322.776428 -0.000060 0.000030 0.211762 0.028892 -98.668549 322.776428
4 322.776428 -0.000060 0.000030 0.211957 0.026908 -98.223663 322.776428
[R_front_hand]
3 238.847015 -0.006795 2.210259 -1.354838 -10.876157 -33.146263 238.857239
4 238.847015 -0.006795 2.210259 -1.447935 -10.865186 -32.656212 238.857239
[R_weapon_bone]
3 155.664093 0.002503 -0.000030 0.003487 0.001180 -90.988930 155.664078
4 155.664093 0.002503 -0.000030 0.003487 0.001180 -90.988930 155.664078
[R_front_hand01_01]
3 87.624611 14.231146 22.918642 -150.319717 -58.611870 56.726910 91.683487
4 87.624611 14.231146 22.918642 -151.998245 -59.169315 58.688122 91.683487
[R_front_hand02_01]
3 89.356956 14.367283 -19.491137 150.553192 56.974068 58.956409 92.579636
4 89.356956 14.367283 -19.491137 152.130127 57.525928 60.828335 92.579636
[R_front_hand03_01]
3 87.286232 -22.307278 -0.143439 0.140549 -0.429018 -72.881996 90.091743
4 87.286232 -22.307278 -0.143439 0.147862 -0.431521 -74.042168 90.091743
[R_front_hand01_02]
3 71.020905 0.000060 0.000119 0.002323 -0.000334 106.381714 71.020905
4 71.020905 0.000060 0.000119 0.002323 -0.000334 106.381714 71.020905
[R_front_hand02_02]
3 71.020844 -0.000030 -0.000119 0.002323 -0.000334 106.381714 71.020836
4 71.020844 -0.000030 -0.000119 0.002323 -0.000334 106.381714 71.020836
[R_front_hand03_02]
3 71.020905 0.000000 0.000030 0.002323 -0.000334 106.381714 71.020905
4 71.020905 0.000000 0.000030 0.002323 -0.000334 106.381714 71.020905
[null_rope01_connect]
3 328.732483 0.000000 -0.000238 -165.800781 17.256289 -163.429214 328.732483
4 328.732483 0.000000 -0.000238 -165.061386 14.550818 -168.444260 328.732483
[Rope1_Seg01]
3 -0.000038 -0.000114 0.000097 138.634338 31.936865 -162.476074 0.000155
4 -0.000038 -0.000114 0.000097 147.966721 37.855587 -160.161285 0.000155
[Rope1_Seg02]
3 139.999863 -0.000179 0.000000 -19.299780 9.210707 34.991184 139.999863
4 139.999863 -0.000179 0.000000 -21.877893 15.229268 46.456303 139.999863
[Rope1_Seg03]
3 139.999924 0.000060 -0.000060 -4.323737 -3.011529 22.885706 139.999924
4 139.999924 0.000060 -0.000060 -2.823715 -2.626525 26.004698 139.999924
[Rope1_Seg04]
3 139.999924 -0.000060 -0.000119 -0.387120 -1.835049 10.598227 139.999924
4 139.999924 -0.000060 -0.000119 0.423534 -1.944963 9.631596 139.999924
[Rope1_Seg05]
3 139.999832 0.000119 -0.000060 0.723479 -1.089123 11.349600 139.999832
4 139.999832 0.000119 -0.000060 0.780184 -2.649166 8.361618 139.999832
[Rope1_Seg06]
3 139.999954 0.000119 -0.000060 2.686538 -0.815807 14.167634 139.999954
4 139.999954 0.000119 -0.000060 1.421966 -3.230622 9.288999 139.999954
[Rope1_Seg07]
3 139.999985 0.000060 0.000000 2.957574 -0.266312 9.206762 139.999985
4 139.999985 0.000060 0.000000 1.644338 -1.696478 6.143917 139.999985
[Rope1_Seg09]
3 121.602913 0.000119 -0.000089 -89.793175 -1.359789 0.847147 121.602913
4 121.602913 0.000119 -0.000089 -89.793175 -1.359789 0.847147 121.602913
[L_mid_hand01]
3 103.859421 1.038730 8.195221 130.544373 -67.584534 -38.866940 104.187431
4 103.859421 1.038730 8.195221 130.544373 -67.584534 -38.866943 104.187431
[L_mid_hand02]
3 105.572853 -4.139662 -10.864139 -168.923172 43.409317 -73.498894 106.211075
4 105.572853 -4.139662 -10.864139 -168.923172 43.409309 -73.498886 106.211075
[L_mid_hand03]
3 104.641464 17.579376 -3.913581 -6.012627 17.808174 74.893669 106.179977
4 104.641464 17.579376 -3.913581 -6.012627 17.808174 74.893669 106.179977
[null_rope02_connect]
3 328.732849 0.000179 -0.000119 -147.223663 7.712318 -3.820368 328.732849
4 328.732849 0.000179 -0.000119 -145.364792 22.093424 0.310658 328.732849
[Rope2_Seg01]
3 -0.000063 0.000099 0.000000 -68.226608 39.181717 18.860607 0.000117
4 -0.000057 0.000099 0.000000 -86.239899 52.272030 8.353094 0.000114
[Rope2_Seg02]
3 139.999741 -0.000060 -0.000119 4.333973 -7.114373 -4.344837 139.999756
4 139.999741 -0.000060 -0.000119 2.166980 -5.365751 -0.877346 139.999756
[Rope2_Seg03]
3 140.000107 0.000030 0.000000 7.654171 -18.152395 -9.486712 140.000107
4 140.000107 0.000030 0.000000 4.150924 -13.543154 -2.340407 140.000107
[Rope2_Seg04]
3 139.999802 0.000000 -0.000060 5.855143 -37.043312 -16.675180 139.999802
4 139.999802 0.000000 -0.000060 0.787715 -40.837154 0.426297 139.999802
[Rope2_Seg05]
3 139.999985 -0.000060 0.000119 -10.603020 -37.362724 -23.637941 139.999985
4 139.999985 -0.000060 0.000119 52.046928 -52.739044 65.517830 139.999985
[Rope2_Seg06]
3 139.999893 -0.000030 -0.000119 -21.408882 -22.139687 -24.523289 139.999893
4 139.999893 -0.000030 -0.000119 63.250160 10.110897 19.730682 139.999893
[Rope2_Seg07]
3 139.999893 0.000060 -0.000060 -4.902751 -1.892958 -5.697412 139.999893
4 139.999893 0.000060 -0.000060 -0.052714 0.001663 0.001691 139.999893
[Rope2_Seg09]
3 121.338966 0.000089 -0.000060 33.793236 -1.359788 -0.847141 121.338966
4 121.338966 0.000089 -0.000060 33.793236 -1.359788 -0.847141 121.338966
[R_mid_hand01]
3 104.680779 11.144459 -10.335981 -16.212063 45.237240 70.462852 105.778534
4 104.680779 11.144459 -10.335981 -16.212063 45.237240 70.462845 105.778534
[R_mid_hand02]
3 104.070427 2.443552 8.231699 49.067368 -67.749794 39.286469 104.424065
4 104.070427 2.443552 8.231699 49.067368 -67.749771 39.286453 104.424065
[R_mid_hand03]
3 106.028137 -11.221827 -5.996406 -177.101105 15.551029 -76.585587 106.788818
4 106.028137 -11.221827 -5.996406 -177.101105 15.551026 -76.585571 106.788818
[spine02]
3 129.756927 0.001550 0.000119 -1.193278 -4.180603 9.186274 129.756927
4 129.756927 0.001550 0.000119 -1.195317 -4.160340 9.218352 129.756927
[spine03]
3 78.613754 0.083765 -4.898845 0.926394 4.733638 2.726435 78.766296
4 78.613762 0.083687 -4.898851 0.924106 4.695966 2.692989 78.766304
[pelvis]
3 169.435242 0.051022 0.000000 0.027357 0.034865 -13.760606 169.435257
4 169.435242 0.051022 0.000000 0.026669 0.019847 -13.802956 169.435257
[null_rope03_connect]
3 -1.257226 -2.466202 137.391083 32.901924 -80.113083 38.626503 137.418976
4 -1.257226 -2.466202 137.391083 -166.685257 -88.036659 -120.534424 137.418976
[null_rope04_connect]
3 -1.259640 -2.480268 -137.844437 32.901924 -80.113083 38.626503 137.872513
4 -1.259640 -2.480268 -137.844437 -166.685257 -88.036659 -120.534424 137.872513
[Rope3_Seg01]
3 -0.000002 -0.000033 0.000284 -130.319092 0.800850 -68.638832 0.000286
4 -0.000003 -0.000030 0.000274 -130.420395 2.670452 -73.513550 0.000275
[Rope3_Seg02]
3 139.999924 -0.000119 0.000060 -1.161252 2.004704 -7.250583 139.999924
4 139.999924 -0.000119 0.000060 -0.615926 1.342568 -7.846289 139.999924
[Rope3_Seg03]
3 139.999924 -0.000119 0.000119 -3.026275 3.277081 -11.099519 139.999924
4 139.999924 -0.000119 0.000119 -2.138589 2.104666 -11.708871 139.999924
[Rope3_Seg04]
3 139.999924 0.000119 0.000000 -9.238991 6.053926 -18.997183 139.999924
4 139.999924 0.000119 0.000000 -7.321320 3.564790 -19.595985 139.999924
[Rope3_Seg05]
3 139.999924 -0.000238 0.000060 -21.468225 11.005240 -24.459690 139.999924
4 139.999924 -0.000238 0.000060 -17.885689 6.679265 -23.842533 139.999924
[Rope3_Seg06]
3 139.999893 -0.000119 -0.000060 -7.091271 7.088408 -4.057919 139.999893
4 139.999893 -0.000119 -0.000060 -5.714210 5.192128 -3.237070 139.999893
[Rope3_Seg07]
3 139.999771 0.000060 -0.000119 3.581504 -0.573246 6.335494 139.999771
4 139.999771 0.000060 -0.000119 4.630428 -0.263863 8.760603 139.999771
[Rope3_Seg08]
3 139.999985 -0.000060 0.000000 -0.346972 2.821555 1.714812 139.999985
4 139.999985 -0.000060 0.000000 0.363027 2.372355 2.873658 139.999985
[Rope3_Seg09]
3 90.185997 -0.000179 -0.000060 89.793228 -1.359877 -0.847183 90.185997
4 90.185997 -0.000179 -0.000060 89.793228 -1.359877 -0.847183 90.185997
[R_rear_hand01]
3 103.366196 -6.073594 -10.757982 -177.714203 24.565960 -73.910950 104.101845
4 103.366196 -6.073594 -10.757982 -177.714203 24.565960 -73.910950 104.101845
[R_rear_hand02]
3 100.509819 12.039542 -7.992327 -12.874826 36.868481 72.167213 101.543350
4 100.509819 12.039542 -7.992327 -12.874829 36.868488 72.167213 101.543350
[R_rear_hand03]
3 101.539970 5.215704 5.435467 71.484627 -71.816643 21.513817 101.819031
4 101.539970 5.215704 5.435467 71.484581 -71.816628 21.513813 101.819031
[Rope4_Seg01]
3 0.000018 -0.000038 -0.000579 53.845768 -18.532621 -118.451820 0.000580
4 0.000018 -0.000038 -0.000563 55.991867 -21.961737 -121.155441 0.000565
[Rope4_Seg02]
3 139.999985 0.000060 0.000119 1.183684 -7.099157 -0.602017 139.999985
4 139.999985 0.000060 0.000119 0.077895 -8.486774 -4.637361 139.999985
[Rope4_Seg03]
3 139.999924 0.000000 -0.000238 3.317084 -12.627347 -0.818466 139.999924
4 139.999924 0.000000 -0.000238 0.342681 -17.231390 -9.550258 139.999924
[Rope4_Seg04]
3 139.999985 0.000000 0.000119 15.966756 -22.894476 3.108053 139.999985
4 139.999985 0.000000 0.000119 -12.616032 -29.613180 -17.011839 139.999985
[Rope4_Seg05]
3 139.999802 -0.000060 -0.000119 68.904350 -33.214355 4.702987 139.999802
4 139.999802 -0.000060 -0.000119 -142.612686 -19.079899 -27.874628 139.999802
[Rope4_Seg06]
3 139.999924 0.000000 0.000060 55.024826 -12.415228 27.601891 139.999924
4 139.999924 0.000000 0.000060 0.593482 12.515510 5.755899 139.999924
[Rope4_Seg07]
3 139.999802 0.000000 0.000000 7.271836 8.084460 10.504540 139.999802
4 139.999802 0.000000 0.000000 -0.068491 5.738566 2.256415 139.999802
[Rope4_Seg08]
3 139.999924 0.000000 0.000119 0.492428 4.220631 4.311659 139.999924
4 139.999924 0.000000 0.000119 -1.551235 2.965928 1.173722 139.999924
[Rope4_Seg09]
3 90.185791 0.000060 0.000060 -135.617828 2.228885 0.850567 90.185791
4 90.185791 0.000060 0.000060 -135.617828 2.228885 0.850567 90.185791
[L_rear_hand01]
3 101.696655 -8.392275 -7.654577 -12.874831 -36.868492 107.832779 102.329041
4 101.696655 -8.392275 -7.654577 -12.874829 -36.868488 107.832764 102.329041
[L_rear_hand02]
3 102.726799 -1.568258 5.773216 71.484627 71.816643 158.486160 102.900848
4 102.726799 -1.568258 5.773216 71.484581 71.816628 158.486160 102.900848
[L_rear_hand03]
3 104.552910 9.721220 -10.420293 -177.714203 -24.565960 -106.089035 105.519653
4 104.552910 9.721220 -10.420293 -177.714203 -24.565960 -106.089035 105.519653
